<?xml version="1.0" encoding="utf-8"?>
<!-- Generator: Adobe Illustrator 17.1.0, SVG Export Plug-In . SVG Version: 6.00 Build 0)  -->
<!DOCTYPE svg PUBLIC "-//W3C//DTD SVG 1.1//EN" "http://www.w3.org/Graphics/SVG/1.1/DTD/svg11.dtd">
<svg version="1.1" id="Layer_1" xmlns="http://www.w3.org/2000/svg" xmlns:xlink="http://www.w3.org/1999/xlink" x="0px" y="0px"
	 viewBox="0 0 417.6 597.6" enable-background="new 0 0 417.6 597.6" xml:space="preserve">
<g id="Reference">
</g>
<g id="thing1">
</g>
<g id="thing2">
	<g>
		<g>
			<path fill="#008ABF" d="M360.7,426c0,13.9-11.4,25.3-25.3,25.3H82.3c-13.9,0-25.3-11.4-25.3-25.3V236.2
				c0-13.9,11.4-25.3,25.3-25.3h253.1c13.9,0,25.3,11.4,25.3,25.3V426z"/>
		</g>
		<g>
			<path fill="#008ABF" d="M158.2,503.8c0,9.5-7.6,17.7-17.7,17.7h-2.5c-9.5,0-17.7-7.6-17.7-17.7v-91.7c0-9.5,7.6-17.7,17.7-17.7
				h2.5c9.5,0,17.7,7.6,17.7,17.7V503.8z"/>
		</g>
		<g>
			<path fill="#008ABF" d="M126.5,364.6c0,9.5-7.6,17.7-17.7,17.7H17.7C7.6,381.7,0,374.1,0,364.6v-3.2c0-9.5,7.6-17.7,17.7-17.7
				h91.1c9.5,0,17.7,7.6,17.7,17.7L126.5,364.6L126.5,364.6z"/>
		</g>
		<g>
			<path fill="#008ABF" d="M417.6,364.6c0,9.5-7.6,17.7-17.7,17.7h-91.1c-9.5,0-17.7-7.6-17.7-17.7v-3.2c0-9.5,7.6-17.7,17.7-17.7
				h91.1c9.5,0,17.7,7.6,17.7,17.7V364.6z"/>
		</g>
		<g>
			<path fill="#008ABF" d="M227.8,503.8c0,9.5-7.6,17.7-17.7,17.7h-2.5c-9.5,0-17.7-7.6-17.7-17.7v-91.7c0-9.5,7.6-17.7,17.7-17.7
				h2.5c9.5,0,17.7,7.6,17.7,17.7V503.8z"/>
		</g>
		<g>
			<path fill="#008ABF" d="M291.1,503.8c0,9.5-7.6,17.7-17.7,17.7h-2.5c-9.5,0-17.7-7.6-17.7-17.7v-91.7c0-9.5,7.6-17.7,17.7-17.7
				h2.5c9.5,0,17.7,7.6,17.7,17.7V503.8z"/>
		</g>
		<rect x="196.1" y="134.9" fill="#008ABF" width="19" height="113.9"/>
		<circle fill="#008ABF" cx="205.6" cy="114.7" r="38"/>
		<g>
			<path fill="#FFFFFF" d="M329,307.7c0,17.7-14.6,36.7-32.3,36.7H121.5c-17.7,0-32.9-19-32.9-36.7V295c0-17.7,14.6-26.6,32.9-26.6
				h175.3c17.7,0,32.3,9.5,32.3,26.6V307.7z"/>
			<g>
				<g>
					<circle fill="#00649D" cx="148.7" cy="301.3" r="30.4"/>
					<circle fill="#FFFFFF" cx="158.8" cy="295.6" r="9.5"/>
				</g>
				<g>
					<circle fill="#00649D" cx="268.9" cy="301.3" r="30.4"/>
					<circle fill="#FFFFFF" cx="279" cy="295.6" r="9.5"/>
				</g>
			</g>
		</g>
	</g>
</g>
<g id="thing3">
</g>
<g id="thing4">
</g>
<g id="All_things">
</g>
</svg>
