<?xml version="1.0" encoding="utf-8"?>
<!-- Generator: Adobe Illustrator 17.1.0, SVG Export Plug-In . SVG Version: 6.00 Build 0)  -->
<!DOCTYPE svg PUBLIC "-//W3C//DTD SVG 1.1//EN" "http://www.w3.org/Graphics/SVG/1.1/DTD/svg11.dtd">
<svg version="1.1" id="Layer_1" xmlns="http://www.w3.org/2000/svg" xmlns:xlink="http://www.w3.org/1999/xlink" x="0px" y="0px"
	 viewBox="0 0 108.1 79.1" enable-background="new 0 0 108.1 79.1" xml:space="preserve">
<g id="jPGFG9_1_">
	<g>
		<path fill="#404041" d="M108.1,79.1c-35.1,0-70.2,0-105.2,0.1c-2.3,0-2.8-0.6-2.8-2.8C0.1,51.6,0.1,27,0.1,2.3
			C0.1,1.2-0.4,0,1.6,0c1.6,0,2.1,0.4,2.1,2.1c-0.1,10.2,0,20.3,0,30.5c0,13.5,0,27,0,40.5c0,2,0.5,2.5,2.5,2.5c33-0.1,66,0,99,0
			c1,0,2,0,3,0.1C108.1,76.7,108.1,77.9,108.1,79.1z"/>
		<path fill="#67ACA9" d="M36.1,54c0,4.1-0.1,8.2,0,12.2c0,1.5-0.3,2.2-2,2.2c-7.1-0.1-14.2-0.1-21.2,0c-1.7,0-2.1-0.6-2.1-2.2
			c0.1-8.2,0.1-16.5,0-24.7c0-1.5,0.4-2,2-2c7.2,0.1,14.3,0.1,21.5,0c1.6,0,2,0.5,1.9,2C36,45.7,36.1,49.8,36.1,54z"/>
		<path fill="#9CD9F7" d="M43.1,39.6c0-8.9,0-17.8,0-26.7c0-1.8,0.5-2.3,2.3-2.2c7,0.1,14,0.1,21,0c1.7,0,2.3,0.5,2.3,2.3
			c-0.1,17.8-0.1,35.7,0,53.5c0,1.6-0.4,2.2-2.1,2.2c-7-0.1-14-0.1-21,0c-1.9,0-2.5-0.6-2.4-2.5C43.1,57.2,43.1,48.4,43.1,39.6z
			 M64.6,39.6c0-7.6,0-15.2,0-22.7c0-1.7-0.4-2.4-2.2-2.3c-4.4,0.1-8.8,0.1-13.2,0c-1.6,0-2.2,0.3-2.2,2.1c0.1,15.3,0.1,30.6,0,46
			c0,1.7,0.7,2.1,2.2,2.1c4.4-0.1,8.8-0.1,13.2,0c1.8,0,2.2-0.6,2.2-2.3C64.6,54.7,64.6,47.1,64.6,39.6z"/>
		<path fill="#74B4B1" d="M88.5,28.7c3.6,0,7.1,0.1,10.7,0c1.5,0,1.8,0.6,1.8,2c0,1.3-0.3,2-1.8,2c-7.3-0.1-14.6-0.1-21.9,0
			c-1.5,0-1.7-0.7-1.8-2c0-1.3,0.3-2,1.8-1.9C81,28.7,84.8,28.7,88.5,28.7C88.5,28.7,88.5,28.7,88.5,28.7z"/>
		<path fill="#74B4B1" d="M88.2,54c-3.6,0-7.1-0.1-10.7,0c-1.6,0-1.9-0.6-1.9-2.1c0-1.4,0.5-1.9,1.9-1.8c7.2,0,14.4,0.1,21.7,0
			c1.6,0,1.9,0.6,1.9,2.1c0,1.4-0.5,1.9-1.9,1.8C95.5,54,91.8,54,88.2,54z"/>
		<path fill="#74B4B1" d="M88,68.4c-3.6,0-7.1-0.1-10.7,0c-1.5,0-1.8-0.6-1.8-1.9c0-1.3,0.2-2,1.8-2c7.3,0.1,14.6,0.1,21.9,0
			c1.5,0,1.8,0.6,1.8,1.9c0,1.3-0.2,2-1.8,2C95.5,68.4,91.8,68.4,88,68.4z"/>
		<path fill="#67ACA9" d="M88.1,39.6c-3.6,0-7.2-0.1-10.7,0c-1.5,0-1.8-0.6-1.8-1.9c0-1.3,0.5-1.7,1.8-1.7c7.3,0,14.7,0,22,0
			c1.4,0,1.7,0.5,1.7,1.8c0,1.2-0.2,1.9-1.6,1.8C95.6,39.5,91.9,39.6,88.1,39.6z"/>
		<path fill="#6AAEAB" d="M88.2,46.7c-3.6,0-7.2,0-10.7,0c-1.4,0-1.9-0.3-1.9-1.8c0-1.4,0.5-1.8,1.9-1.8c7.2,0.1,14.5,0,21.7,0
			c1.2,0,1.8,0.3,1.8,1.7c0,1.3-0.2,2-1.8,2C95.6,46.6,91.9,46.7,88.2,46.7z"/>
		<path fill="#67ACA9" d="M88.1,61.1c-3.5,0-7,0-10.5,0c-1.4,0-2.1-0.2-2.1-1.9c0-1.5,0.7-1.7,2-1.7c7.2,0,14.3,0,21.5,0
			c1.3,0,2,0.2,2,1.7c0,1.7-0.7,1.9-2.1,1.9C95.3,61.1,91.7,61.1,88.1,61.1z"/>
	</g>
</g>
</svg>
