<?xml version="1.0" encoding="utf-8"?>
<!-- Generator: Adobe Illustrator 17.1.0, SVG Export Plug-In . SVG Version: 6.00 Build 0)  -->
<!DOCTYPE svg PUBLIC "-//W3C//DTD SVG 1.1//EN" "http://www.w3.org/Graphics/SVG/1.1/DTD/svg11.dtd">
<svg version="1.1" id="Layer_1" xmlns="http://www.w3.org/2000/svg" xmlns:xlink="http://www.w3.org/1999/xlink" x="0px" y="0px"
	 viewBox="0 0 103.5 103" enable-background="new 0 0 103.5 103" xml:space="preserve">
<g id="jPGFG9_1_">
	<g>
		<path fill="#67ACA9" d="M70,0c1.3,1.1,1.6,2.6,1.5,4.3c-0.1,4.2,0,8.3-0.1,12.5c0,1.4,0.5,1.9,1.9,1.8c2.4-0.1,4.8-0.1,7.2,0
			c2.8,0.1,4.3,1.5,4.3,4.4c0.1,2.4,0.2,4.8,0,7.2c-0.2,2.4,0.8,2.9,2.9,2.8c4.1-0.2,8.2,0,12.2-0.1c1.9,0,3.4,0.5,3.4,2.7
			c0,2-1.5,2.5-3.3,2.5c-4.4,0-8.8,0-13.2,0c-1.5,0-2.1,0.5-2,2c0.1,2.4,0.1,4.8,0,7.2c-0.1,1.7,0.4,2.3,2.2,2.3
			c4.2-0.1,8.3-0.1,12.5,0c2.6,0,4,1,3.9,2.8c-0.2,2.3-1.9,2.6-3.8,2.6c-4.2,0-8.5,0-12.7,0c-1.5,0-2.1,0.4-2,1.9
			c0.1,2.6,0.1,5.2,0,7.7c-0.1,1.5,0.5,1.8,1.9,1.8c4.4-0.1,8.8,0,13.2,0c1.9,0,3.4,0.5,3.4,2.7c0,2-1.5,2.5-3.3,2.5
			c-4.4,0-8.8,0-13.2,0c-1.5,0-2.1,0.5-2,2c0.1,2.2,0.1,4.5,0,6.7c-0.1,2.9-1.4,4.2-4.3,4.3c-2.4,0-4.8,0.1-7.2,0
			c-1.7-0.1-2.3,0.5-2.3,2.3c0.1,4.2,0,8.3,0.1,12.5c0,1.5-0.3,2.8-1.6,3.6c-0.7,0-1.3,0-2,0c-1.2-0.9-1.6-2.1-1.6-3.7
			c0.1-4.2,0-8.5,0.1-12.7c0-1.5-0.4-2.1-2-2c-2.6,0.1-5.2,0.1-7.7,0c-1.4,0-1.9,0.5-1.8,1.9c0.1,4.1,0,8.1,0.1,12.2
			c0,1.7-0.4,3.1-1.5,4.3c-0.8,0-1.7,0-2.5,0c-1.1-1.2-1.5-2.6-1.5-4.3c0.1-4.1,0-8.1,0.1-12.2c0-1.4-0.4-1.9-1.8-1.9
			c-2.6,0.1-5.2,0.1-7.7,0c-1.5-0.1-2,0.5-2,2c0.1,4.2,0,8.5,0.1,12.7c0,1.5-0.4,2.8-1.6,3.7c-0.7,0-1.3,0-2,0
			c-1.4-0.8-1.7-2.1-1.6-3.6c0.1-4.2,0-8.5,0-12.7c0-1.5-0.5-2.1-2-2c-2.5,0.1-5,0.1-7.5,0c-2.9-0.1-4.2-1.4-4.3-4.3
			c-0.1-2.2-0.1-4.3,0-6.5c0.1-1.7-0.4-2.3-2.2-2.3c-4.2,0.1-8.5,0-12.7,0.1c-1.5,0-2.8-0.3-3.6-1.6c0-0.7,0-1.3,0-2
			c0.9-1.2,2.1-1.6,3.7-1.6c4.3,0.1,8.6,0,12.9,0.1c1.5,0,2-0.5,2-2c-0.1-2.6-0.1-5.1,0-7.7c0.1-1.5-0.5-1.8-1.9-1.8
			c-4.1,0.1-8.3,0-12.4,0.1c-1.7,0-3.1-0.3-4.3-1.5c0-0.8,0-1.7,0-2.5c1.3-1.2,2.8-1.5,4.6-1.5c4,0.1,8,0,12,0.1
			c1.5,0,2.1-0.4,2-1.9c-0.1-2.5-0.1-5,0-7.5c0.1-1.7-0.6-2.1-2.2-2.1c-4.2,0.1-8.5,0-12.7,0.1c-1.5,0-2.8-0.3-3.7-1.6
			c0-0.7,0-1.3,0-2c0.9-1.2,2.1-1.6,3.7-1.6c4,0.1,8-0.1,12,0.1c2.2,0.1,3.2-0.4,2.9-2.8c-0.2-2.3-0.1-4.7,0-7
			c0.1-3.1,1.5-4.6,4.6-4.6c2.3,0,4.7-0.2,7,0c2.1,0.2,2.5-0.7,2.4-2.5c-0.1-3.9,0-7.8-0.1-11.7c0-1.7,0.4-3.1,1.5-4.3
			c0.8,0,1.7,0,2.5,0c1.2,1.2,1.6,2.6,1.5,4.3c-0.1,4.1,0,8.3-0.1,12.4c0,1.4,0.4,1.9,1.8,1.9c2.5-0.1,5-0.1,7.5,0
			c1.7,0.1,2.3-0.4,2.3-2.2c-0.1-4.2,0-8.5-0.1-12.7c0-1.5,0.4-2.7,1.6-3.7c0.7,0,1.3,0,2,0c1.4,0.8,1.7,2.1,1.7,3.6
			c-0.1,4.3,0,8.6,0,12.9c0,1.5,0.4,2.1,2,2c2.5-0.1,5-0.1,7.5,0c1.6,0.1,2.2-0.5,2.1-2.1c-0.1-4.1,0-8.3,0-12.4
			c0-1.7,0.3-3.1,1.9-4C68.7,0,69.3,0,70,0z M63.6,51.7c0.1-6.6-5-11.8-11.5-12c-6.4-0.1-11.8,5.2-12,11.6c-0.2,6.4,5.3,12,11.9,12
			C58.4,63.3,63.5,58.1,63.6,51.7z"/>
	</g>
</g>
</svg>
